<?xml version="1.0" encoding="utf-8"?>
<!DOCTYPE svg PUBLIC "-//W3C//DTD SVG 20010904//EN" "http://www.w3.org/TR/2001/REC-SVG-20010904/DTD/svg10.dtd">
<svg version="1.0" xmlns="http://www.w3.org/2000/svg" width="1082pt" height="1082pt" viewBox="0 0 1082 1082" style="" preserveAspectRatio="xMidYMid meet">
<g fill="#E75913FF" stroke="#E75913FF">
<path d="M 413.000 179.704 C 410.533 180.601 406.219 185.052 405.087 187.867 C 403.757 191.176 383.000 331.986 383.000 337.700 C 383.000 340.013 383.516 343.039 384.148 344.425 C 385.212 346.761 384.831 347.436 378.887 353.737 C 366.858 366.489 359.152 377.593 350.959 393.986 C 326.032 443.855 327.647 509.735 354.918 555.549 C 381.048 599.446 426.610 626.899 489.500 636.641 C 506.572 639.286 556.220 639.324 573.000 636.706 C 656.517 623.674 710.055 579.494 725.362 510.977 C 738.030 454.268 722.372 394.293 684.383 354.024 C 678.179 347.446 677.786 346.765 678.852 344.425 C 679.484 343.039 680.000 340.125 680.000 337.948 C 680.000 332.472 659.181 191.121 657.895 187.867 C 656.186 183.544 651.620 179.893 647.175 179.297 C 637.663 178.021 640.328 175.732 584.302 233.286 C 555.811 262.554 532.024 286.500 531.441 286.500 C 530.859 286.500 507.494 262.959 479.518 234.186 C 451.543 205.413 427.404 181.226 425.876 180.436 C 423.157 179.030 415.975 178.621 413.000 179.704 M 560.199 326.492 C 624.618 334.996 673.992 371.694 691.384 424.000 C 697.546 442.532 698.501 449.052 698.490 472.500 C 698.478 495.618 697.411 503.002 691.769 519.000 C 681.189 549.001 660.206 572.241 629.548 587.914 C 575.794 615.394 492.355 616.142 436.836 589.641 C 396.880 570.568 372.256 538.309 365.396 496.051 C 363.788 486.148 363.586 460.688 365.035 450.500 C 372.305 399.364 405.813 358.207 456.500 338.157 C 468.432 333.437 487.979 328.409 501.621 326.551 C 515.344 324.683 546.255 324.651 560.199 326.492 M 634.028 228.750 C 634.043 229.713 637.154 251.425 640.941 277.000 C 644.729 302.575 647.713 323.616 647.572 323.758 C 647.432 323.900 643.084 321.787 637.909 319.064 C 619.519 309.385 595.078 301.347 573.714 297.951 C 569.432 297.271 566.057 296.377 566.214 295.965 C 566.690 294.718 632.443 227.138 633.250 227.066 C 633.663 227.030 634.012 227.788 634.028 228.750 M 463.512 261.358 C 481.655 279.980 496.629 295.553 496.786 295.965 C 496.943 296.377 493.568 297.271 489.286 297.951 C 468.160 301.309 444.832 308.889 426.180 318.458 C 420.344 321.452 415.467 323.800 415.343 323.676 C 415.218 323.552 418.238 302.311 422.052 276.475 C 425.867 250.639 428.991 228.900 428.994 228.167 C 428.997 227.433 429.343 226.983 429.762 227.167 C 430.180 227.350 445.368 242.736 463.512 261.358 "/></g>
<g fill="#E75913FF" stroke="#E75913FF">
<path d="M 313.217 700.209 C 303.612 701.634 295.773 707.511 292.260 715.921 C 291.440 717.883 287.673 737.491 283.889 759.494 C 274.261 815.481 273.815 818.735 275.115 823.518 C 279.895 841.115 304.997 844.202 313.790 828.274 C 315.701 824.814 316.634 819.459 319.409 796.027 C 321.240 780.573 322.951 767.716 323.210 767.456 C 323.470 767.196 327.857 780.600 332.958 797.242 C 338.059 813.884 343.105 828.943 344.172 830.708 C 348.774 838.320 355.579 841.218 363.587 838.976 C 369.251 837.390 372.544 834.824 374.904 830.155 C 375.921 828.145 380.674 813.450 385.466 797.500 C 390.259 781.550 394.500 768.162 394.892 767.748 C 395.283 767.335 397.098 779.485 398.926 794.748 C 400.753 810.012 402.920 824.198 403.742 826.273 C 405.778 831.415 412.074 836.578 418.059 838.014 C 431.389 841.212 444.012 831.925 443.994 818.934 C 443.990 816.495 440.385 793.125 435.981 767.000 C 427.255 715.233 426.338 711.897 419.218 706.028 C 408.664 697.328 390.953 697.921 381.161 707.301 C 376.111 712.138 373.977 717.366 366.481 743.252 C 362.698 756.315 359.308 766.665 358.948 766.252 C 358.588 765.838 354.973 754.036 350.915 740.024 C 342.813 712.049 341.252 708.905 332.897 703.740 C 327.494 700.399 320.451 699.136 313.217 700.209 "/></g>
<g fill="#EAD330FF" stroke="#EAD330FF">
<path d="M 687.429 701.893 C 681.929 704.391 677.312 710.236 675.936 716.443 C 675.177 719.865 674.957 732.492 675.254 755.500 C 675.622 783.923 675.979 790.484 677.435 795.500 C 685.182 822.209 708.749 838.113 741.000 838.398 C 755.113 838.523 763.779 836.576 776.793 830.355 C 792.406 822.893 801.644 811.530 806.025 794.404 C 807.810 787.423 807.998 783.306 807.978 751.590 C 807.953 712.141 807.867 711.603 800.546 705.174 C 795.804 701.011 793.138 700.000 786.903 700.000 C 778.185 700.000 771.784 703.824 767.653 711.500 C 765.595 715.323 765.478 717.072 765.000 751.000 L 764.500 786.500 761.723 791.223 C 754.339 803.785 735.623 805.718 724.928 795.023 C 718.287 788.382 718.004 786.499 717.978 748.807 C 717.958 719.468 717.786 716.133 716.100 712.500 C 713.930 707.824 708.688 702.571 704.685 701.061 C 700.362 699.432 691.956 699.837 687.429 701.893 "/></g>
<g fill="#EAD330FF" stroke="#EAD330FF">
<path d="M 520.000 735.175 C 514.851 736.638 510.487 740.363 508.068 745.360 C 505.983 749.666 505.938 750.708 506.215 787.712 L 506.500 825.649 509.251 829.805 C 515.815 839.720 530.607 841.674 539.564 833.809 C 546.301 827.894 546.446 827.218 547.000 799.166 L 547.500 773.832 550.766 770.916 C 555.216 766.943 559.768 766.979 564.376 771.025 L 567.821 774.050 568.161 798.775 C 568.493 822.989 568.552 823.592 571.000 827.956 C 578.084 840.580 594.798 842.607 604.378 832.004 C 609.893 825.899 610.173 823.762 609.819 790.500 L 609.500 760.500 606.568 754.710 C 601.652 745.001 593.241 738.600 581.320 735.495 C 570.187 732.595 559.017 734.382 547.166 740.958 L 541.832 743.917 533.837 738.959 C 525.291 733.659 525.314 733.665 520.000 735.175 "/></g>
<g fill="#E75913FF" stroke="#E75913FF">
<path d="M 574.316 436.943 C 571.875 438.052 569.504 440.059 568.623 441.763 C 566.477 445.913 558.447 494.801 559.340 498.281 C 560.222 501.719 565.343 504.991 569.850 504.996 C 572.303 504.999 574.066 504.130 576.432 501.750 C 579.528 498.637 579.720 497.973 580.998 486.000 C 583.059 466.674 582.962 466.699 588.333 484.096 C 590.945 492.554 593.761 500.513 594.593 501.782 C 597.719 506.554 604.691 506.633 608.197 501.938 C 609.205 500.588 611.843 493.412 614.060 485.992 C 616.277 478.571 618.351 471.825 618.669 471.000 C 619.578 468.639 620.558 473.162 622.034 486.538 C 623.286 497.890 623.518 498.666 626.577 501.750 C 628.938 504.131 630.695 504.999 633.150 504.996 C 637.664 504.991 642.780 501.719 643.650 498.281 C 644.308 495.679 638.289 455.046 635.841 445.570 C 633.189 435.301 620.165 431.826 612.221 439.269 C 610.119 441.237 608.344 446.116 603.466 463.324 C 602.558 466.527 601.621 468.954 601.383 468.717 C 601.146 468.479 599.198 462.333 597.054 455.058 C 592.941 441.099 591.479 438.561 586.282 436.362 C 581.985 434.543 579.317 434.673 574.316 436.943 "/></g>
<g fill="#E75913FF" stroke="#E75913FF">
<path d="M 438.686 436.017 C 435.108 437.091 433.224 438.665 431.477 442.045 C 429.975 444.949 422.001 489.353 422.000 494.816 C 422.000 499.181 423.415 501.646 426.980 503.490 C 431.470 505.811 435.541 505.382 439.088 502.213 C 442.097 499.524 442.269 498.922 443.940 485.209 C 444.894 477.391 445.927 470.740 446.237 470.430 C 446.547 470.120 447.269 471.359 447.841 473.183 C 448.414 475.007 450.511 481.794 452.501 488.264 C 456.772 502.149 459.085 505.451 464.436 505.299 C 470.892 505.116 471.846 503.369 479.530 477.669 C 480.982 472.811 482.311 468.986 482.483 469.169 C 482.655 469.351 483.540 475.575 484.449 483.000 C 485.359 490.425 486.593 497.759 487.192 499.297 C 490.142 506.869 502.828 506.657 506.007 498.982 C 507.137 496.255 506.771 492.695 503.047 470.185 C 498.260 441.256 497.461 439.105 490.503 436.448 C 484.650 434.213 479.610 435.181 475.503 439.329 C 472.981 441.876 471.603 445.119 468.502 455.804 C 466.343 463.241 464.335 468.533 463.947 467.804 C 463.566 467.087 461.774 461.325 459.964 455.000 C 458.153 448.675 455.779 442.212 454.688 440.637 C 451.378 435.862 445.171 434.070 438.686 436.017 "/></g>
<g fill="#EAD330FF" stroke="#EAD330FF">
<path d="M 466.885 735.380 C 461.193 737.414 457.345 740.656 455.086 745.323 C 453.087 749.453 453.000 751.167 453.000 786.658 C 453.000 823.489 453.012 823.709 455.327 828.093 C 461.480 839.748 476.727 842.446 486.743 833.653 C 493.869 827.396 493.956 826.824 493.956 786.500 C 493.956 746.034 493.843 745.314 486.573 739.321 C 480.481 734.299 473.705 732.943 466.885 735.380 "/></g>
<g fill="#EAD330FF" stroke="#EAD330FF">
<path d="M 635.309 735.586 C 630.173 737.475 624.497 743.549 623.072 748.679 C 622.416 751.044 622.017 765.841 622.028 787.500 C 622.042 819.198 622.216 822.878 623.865 826.509 C 630.963 842.133 652.785 843.034 660.707 828.030 L 663.067 823.559 662.783 785.443 L 662.500 747.326 659.736 743.339 C 654.457 735.725 643.976 732.398 635.309 735.586 "/></g>
<g fill="#EAD330FF" stroke="#EAD330FF">
<path d="M 635.885 686.322 C 629.906 688.554 626.312 691.733 623.586 697.203 C 617.841 708.732 621.961 721.307 633.413 727.195 C 636.510 728.787 638.744 729.127 644.120 728.823 C 652.421 728.354 658.074 724.884 661.749 718.000 C 665.155 711.620 664.702 701.171 660.761 695.215 C 655.585 687.393 644.058 683.273 635.885 686.322 "/></g>
<g fill="#EAD330FF" stroke="#EAD330FF">
<path d="M 466.759 686.423 C 458.636 689.322 453.581 695.098 452.175 703.086 C 449.678 717.274 459.191 729.000 473.197 729.000 C 493.104 729.000 502.333 706.059 488.137 691.863 C 481.639 685.365 474.683 683.595 466.759 686.423 "/></g>
</svg>
